<svg width="24" height="24" viewBox="0 0 24 24" fill="none" xmlns="http://www.w3.org/2000/svg">
<path d="M2 14C2 13.4477 2.44772 13 3 13L8 13L8 21C8 21.5523 7.55229 22 7 22L3 22C2.44772 22 2 21.5523 2 21L2 14Z" fill="white"/>
<path d="M10 13L21 13C21.5523 13 22 13.4477 22 14L22 21C22 21.5523 21.5523 22 21 22L11 22C10.4477 22 10 21.5523 10 21L10 13Z" fill="white"/>
<path d="M16 3C16 2.44772 16.4477 2 17 2L21 2C21.5523 2 22 2.44771 22 3L22 10C22 10.5523 21.5523 11 21 11L16 11L16 3Z" fill="white"/>
<path d="M2 3C2 2.44772 2.44772 2 3 2L13 2C13.5523 2 14 2.44771 14 3L14 11L3 11C2.44772 11 2 10.5523 2 10L2 3Z" fill="white"/>
</svg>
